<?xml version="1.0" encoding="UTF-8" standalone="no"?>
<!-- Creator: CorelDRAW -->

<svg
   xmlns:dc="http://purl.org/dc/elements/1.1/"
   xmlns:cc="http://creativecommons.org/ns#"
   xmlns:rdf="http://www.w3.org/1999/02/22-rdf-syntax-ns#"
   xmlns:svg="http://www.w3.org/2000/svg"
   xmlns="http://www.w3.org/2000/svg"
   xmlns:xlink="http://www.w3.org/1999/xlink"
   xmlns:sodipodi="http://sodipodi.sourceforge.net/DTD/sodipodi-0.dtd"
   xmlns:inkscape="http://www.inkscape.org/namespaces/inkscape"
   xml:space="preserve"
   width="1920"
   height="906"
   style="fill-rule:evenodd"
   viewBox="0 0 1920 922.97542"
   id="svg2"
   version="1.1"
   inkscape:version="0.48.4 r9939"
   sodipodi:docname="AutoCupboardPneumaticTransfer03.svg"><metadata
   id="metadata2052"><rdf:RDF><cc:Work
       rdf:about=""><dc:format>image/svg+xml</dc:format><dc:type
         rdf:resource="http://purl.org/dc/dcmitype/StillImage" /><dc:title /></cc:Work></rdf:RDF></metadata><sodipodi:namedview
   pagecolor="#ffffff"
   bordercolor="#666666"
   borderopacity="1"
   objecttolerance="10"
   gridtolerance="10"
   guidetolerance="10"
   inkscape:pageopacity="0"
   inkscape:pageshadow="2"
   inkscape:window-width="1680"
   inkscape:window-height="988"
   id="namedview2050"
   showgrid="false"
   inkscape:zoom="1.2287945"
   inkscape:cx="534.41238"
   inkscape:cy="447.86536"
   inkscape:window-x="-8"
   inkscape:window-y="-8"
   inkscape:window-maximized="1"
   inkscape:current-layer="svg2" />
 <defs
   id="defs4">
  <style
   type="text/css"
   id="style6">
   
    .fil6 {fill:teal}
    .fil7 {fill:#0099FF}
    .fil15 {fill:#00C000}
    .fil2 {fill:lime}
    .fil8 {fill:#191919}
    .fil0 {fill:#3F3F3F}
    .fil12 {fill:#7F7F7F}
    .fil5 {fill:gray}
    .fil9 {fill:#929497}
    .fil11 {fill:#A5A5A5}
    .fil4 {fill:silver}
    .fil3 {fill:red}
    .fil14 {fill:yellow}
    .fil1 {fill:white}
    .fil13 {fill:#0099FF;fill-rule:nonzero}
    .fil16 {fill:#7F7F7F;fill-rule:nonzero}
    .fil17 {fill:red;fill-rule:nonzero}
    .fil10 {fill:white;fill-rule:nonzero}
   
  </style>
 
  
  
  
  
  
  
  
  
  
  
  
  
  
  
  
  
  
  
  
  
  
  
  
  
  
  
  
  
  
  
  
  
  
  
  
  
  
  
  
  
  
  
  
  
  
  
  
  
  
  
  
  
  
  
  
  
  
  
  
  
  
  
  
  
  
  
  
  
  
  
  
  
  
  
  
  
  
  
  
  
  
  
  
  
  
  
  
  
  
  
  
  
  
  
  
  
  
  
  
  
  
  
  
  
  
  
  
  
  
  
  
  
  
  
  
  
  
  
  
  
  
  
  
  
  
  
  
  
  
  
  
  
  
  
  
  
  
  
  
  
  
  
  
  
  
  
  
  
  
  
  
  
  
  
  
  
  
  
  
  
  
  
  
  
  
  
  
  
  
  
  
  
  
  
  
  
  
  
  
  
  
  
  
  
  
  
  
  
  
  
  
  
  
  
  
  
  
  
  
  
  
  
  
  
  
  
  
  
  
  
  
  
  
  
  
  
  
  
  
  
  
  
  
  
  
  
  
  
  
  
  
  
  
  
  
  
  
  
  
  
  
  
  
  
  
  
  
  
  
  
  
  
  
  
  
  
  
  
  
  
  
  
  
  
  
  
  
  
  
  
  
  
  
  
  
  
  
  
  
  
  
  
  
  
  
  
  
  
  
  
  
  
  
  
  
  
  
  
  
  
  
  
  
  
  
  
  
  
  
  
  
  
  
  
  
  
  
  
  
  
  
  
  
  
  
  
  
  
  
  
  
  
  
  
  
  
  
  
  
  
  
  
  
  
  
  
  
  
  
  
  
  
  
  
  
  
  
  
  
  
  
  
  
  
  
  
  
  
  
  
  
  
  
  
  
  
  
  
  
  
  
  
  
  
  
  
  
  
  
  
  
  
  
  
  
  
  
  
  
  
  
  
  
  
  
  
  
  
  
  
  
  
  
  
  
  
  
  
  
  
  
  
  
  
  
  
  
  
  
  
  
  
  
  
  
  
  
  
  
  
  
  
  
  
  
  
  
  
  
  
  
  
  
  
  
  
  
  
  
  
  
  
  
  
  
  
  
  
  
  
  
  
  
  
  
  
  
  
  
  
  
  
  
  
  
  
  
  
  
  
  
  
  
  
  
  
  
  
  
  
  
  
  
  
  
  
  
  
  
  
  
  
  
  
  
  
  
  
  
  
  
  
  
  
  
  
  
  
  
  
  
  
  
  
  
  
  
  
  
  
  
  
  
  
  
  
  
  
  
  
  
  
  
  
  
  
  
  
  
  
  
  
  
  
  
  
  
  
  
  
  
  
  
  
  
  
  
  
  
  
  
  
  
  
  
  
  
  
  
  
  
  
  
  
  
  
  
  
  
  
  
  
  
  
  
  
  
  
  
  
  
  
  
  
  
  
  
  
  
  
  
  
  
  
  
  
  
  
  
  
  
  
  
  
  
  
  
  
  
  
  
  
  
  
  
  
  
  
  
  
  
  
  
  
  
  
  
  
  
  
  
  
  
  
  
  
  
  
  
  
  
  
  
  
  
  
  
  
  
  
  
  
  
  
  
  
  
  
  
  
  
  
  
  
  
  
  
  
  
  
  
  
  
  
  
  
  
  
  
  
  
  
  
  
  
  
  
  
  
  
  
  
  
  
  
  
  
  
  
  
  
  
  
  
  
  
  
  
  
  
  
  
  
  
  
  
  
  
  
  
  
  
  
  
  
  
  
  
  
  
  
  
  
  
  
  
  
  
  
  
  
  
  
  
  
  
  
  
  
  
  
  
  
  
  
  
  
  
  
  
  
  
  
  
  
  
  
  
  
  
  
  
  
  
  
  
  
  
  
  
  
  
  
  
  
  
  
  
  
  
  
  
  
  
  
  
  
  
  
  
  
  
  
  
  
  
  
  
  
  
  
  
  
  
  
  
  
  
  
  
  
  
  
  
  
  
  
  
  
  
  
  
  
  
  
  
  
  
  
  
  
  
  
  
  
  
  
  
  
  
  
  
  
  
  
  
  
  
  
  
  
  
  
  
  
  
  
  
  
  
  
  
  
  
  
  
  
  
  
  
  
  
  
  
  
  
  
  
  
  
  
  
  
  
  
  
  
  
  
  
  
  
  
  
  
  
  
  
  
  
  
  
  
  
  
  
  
  
  
  
  
  
  
  
  
  
  
  
  
  
  
  
  
 
   
   
  
   
   
   
  
   
   
  
    
    
   
   
   
   
   
  
   
   
  
   
   
   
  
   
   
   
  
   
   
   
  <linearGradient
   inkscape:collect="always"
   xlink:href="#rect138_1_"
   id="linearGradient3484"
   gradientUnits="userSpaceOnUse"
   gradientTransform="matrix(1.06,0,0,-1.06,-0.03546284,1037.1403)"
   x1="90.030899"
   y1="576.26001"
   x2="118.6897"
   y2="576.26001" /><linearGradient
   id="rect138_1_"
   gradientUnits="userSpaceOnUse"
   x1="90.030899"
   y1="576.26001"
   x2="118.6897"
   y2="576.26001"
   gradientTransform="matrix(1.06,0,0,-1.06,-0.03546284,1037.1403)"><stop
     offset="0"
     style="stop-color:#FFFFFF"
     id="stop14" /><stop
     offset="1"
     style="stop-color:#231F20"
     id="stop16" /></linearGradient><linearGradient
   inkscape:collect="always"
   xlink:href="#rect187_1_"
   id="linearGradient3486"
   gradientUnits="userSpaceOnUse"
   gradientTransform="matrix(1.06,0,0,-1.06,-0.03546284,1037.1403)"
   x1="527.84882"
   y1="598.10052"
   x2="527.84882"
   y2="495.33649" /><linearGradient
   id="rect187_1_"
   gradientUnits="userSpaceOnUse"
   x1="527.84882"
   y1="598.10052"
   x2="527.84882"
   y2="495.33649"
   gradientTransform="matrix(1.06,0,0,-1.06,-0.03546284,1037.1403)"><stop
     offset="0"
     style="stop-color:#BBBDBF"
     id="stop24" /><stop
     offset="0.9882"
     style="stop-color:#404041"
     id="stop26" /><stop
     offset="1"
     style="stop-color:#404041"
     id="stop28" /></linearGradient><linearGradient
   inkscape:collect="always"
   xlink:href="#rect121_1_"
   id="linearGradient3488"
   gradientUnits="userSpaceOnUse"
   gradientTransform="matrix(1.06,0,0,-1.06,-0.03546284,1037.1403)"
   x1="217.3671"
   y1="781.97559"
   x2="217.3671"
   y2="704.30713" /><linearGradient
   id="rect121_1_"
   gradientUnits="userSpaceOnUse"
   x1="217.3671"
   y1="781.97559"
   x2="217.3671"
   y2="704.30713"
   gradientTransform="matrix(1.06,0,0,-1.06,-0.03546284,1037.1403)"><stop
     offset="0"
     style="stop-color:#BBBDBF"
     id="stop176" /><stop
     offset="0.9882"
     style="stop-color:#404041"
     id="stop178" /><stop
     offset="1"
     style="stop-color:#404041"
     id="stop180" /></linearGradient>






























































</defs>
 




















<rect
   id="rect388"
   class="st0"
   width="1954.0087"
   height="921.92651"
   x="-17.004333"
   y="0.52445316"
   style="fill:#2b2e33;stroke:#2b2e33;stroke-width:1.96573746" /><polygon
   id="polygon390"
   class="st1"
   points="1550.9,259.8 1550.9,362 1540.8,362 1540.8,259.8 "
   transform="matrix(0.97581377,0,0,1.3994939,24.114371,-206.12871)"
   style="fill:#1b75bb" /><polygon
   id="polygon392"
   class="st1"
   points="1360.1,227.4 1360.1,217.3 1508.8,217.3 1508.8,227.4 "
   transform="matrix(0.9886183,0,0,0.9767847,6.6989914,-96.086495)"
   style="fill:#1b75bb" /><rect
   id="rect106"
   x="126.86756"
   y="143.39491"
   class="st2"
   width="10.246044"
   height="213.45367"
   style="fill:#a6a8ab" /><rect
   id="rect112"
   x="126.86756"
   y="140.97916"
   class="st2"
   width="55.718964"
   height="10.353918"
   style="fill:#a6a8ab" /><rect
   id="rect127"
   x="94.76329"
   y="372.5748"
   class="st3"
   width="74.55217"
   height="101.78096"
   style="fill:#d0d2d3" /><path
   id="path397"
   inkscape:connector-curvature="0"
   class="st4"
   d="M 94.763288,474.35577 H 169.31546 V 372.5748 H 94.763288 c 0,0 0,101.78097 0,101.78097 z m -2.82986,2.83268 V 369.74213 H 172.04774 V 477.18845 H 91.933428 z"
   style="fill:#58595b" /><rect
   id="rect129"
   x="96.031845"
   y="374.03998"
   class="st5"
   width="72.01506"
   height="38.87603"
   style="fill:#404041" /><polygon
   id="rect138"
   class="st6"
   points="95.4,420.5 95.4,432.2 125.8,432.2 125.8,420.5 "
   style="fill:url(#linearGradient3484)"
   transform="matrix(0.97581377,0,0,0.9767847,24.114371,-53.107968)" /><path
   id="path401"
   inkscape:connector-curvature="0"
   class="st5"
   d="m 117.207,369.05838 h 29.66474 V 357.63 H 117.207 v 11.42838 z m 29.95749,0.68375 h -30.34781 -0.39033 v -0.39072 -12.11213 -0.39071 h 0.39033 30.34781 0.39032 v 0.39071 12.11213 0.39072 h -0.39032 z"
   style="fill:#404041" /><rect
   id="rect176"
   x="538.46576"
   y="447.10345"
   class="st4"
   width="81.187706"
   height="6.2514224"
   style="fill:#58595b" /><path
   id="path404"
   inkscape:connector-curvature="0"
   class="st5"
   d="M 600.13724,476.21166 V 453.3549 h 19.41869 v 22.85676 h -19.41869 z m 1.36614,-1.56285 h 16.68641 v -19.63338 h -16.68641 v 19.63338 z"
   style="fill:#404041" /><rect
   id="rect180"
   x="601.69855"
   y="340.73163"
   class="st5"
   width="17.954973"
   height="106.37186"
   style="fill:#404041" /><polygon
   id="rect187"
   class="st7"
   points="527.1,403.2 527.1,512.1 591.9,512.1 591.9,403.2 "
   style="fill:url(#linearGradient3486)"
   transform="matrix(0.97581377,0,0,0.9767847,24.114371,-53.107968)" /><text
   class="st8 st9 st10"
   id="text31"
   x="197.45811"
   y="64.403244"
   style="font-size:20.61006355px;fill:#ffffff;font-family:AdobeSongStd-Light-GBpc-EUC-H"
   transform="scale(0.99950287,1.0004974)">四项转换器</text>

<text
   id="text205"
   class="st8 st9 st10"
   style="font-size:20.61006355px;fill:#ffffff;font-family:AdobeSongStd-Light-GBpc-EUC-H"
   x="112.78887"
   y="500.57922"
   transform="scale(0.99950287,1.0004974)">风机</text>

<path
   id="path412"
   inkscape:connector-curvature="0"
   class="st11"
   d="m 151.16532,402.36674 h -18.05255 -0.19516 v -0.19536 -17.48445 -0.19535 h 0.19516 18.05255 0.0976 l 0.0976,0 c 9.56297,9.0841 0,17.6798 0,17.6798 l -0.19517,0.19536 0,0 0,0 z m -17.75981,-0.39072 h 17.75981 c 0.68307,-0.68375 8.78233,-8.69338 0,-17.09373 h -17.75981 l 0,17.09373 0,0 z"
   style="fill:#231f20" /><path
   id="path414"
   inkscape:connector-curvature="0"
   class="st12"
   d="m 133.40551,401.97602 h 17.75981 c 0.68307,-0.68375 8.78233,-8.69338 0,-17.09373 h -17.75981 l 0,17.09373 0,0 z"
   style="fill:#ec1c24" /><path
   id="path416"
   inkscape:connector-curvature="0"
   class="st11"
   d="m 112.81584,384.58926 h 18.05256 0.19516 v 0.19535 17.48445 0.19536 h -0.19516 -18.05256 -0.0976 l -0.0976,-0.0977 c -9.56298,-9.0841 0,-17.67981 0,-17.67981 l 0.19516,-0.0977 0,0 0,0 z m 17.85739,0.29303 h -17.75981 c -0.68307,0.68375 -8.78232,8.69339 0,17.09373 h 17.75981 l 0,-17.09373 0,0 z"
   style="fill:#231f20" /><path
   id="path418"
   inkscape:connector-curvature="0"
   class="st13"
   d="m 130.67323,384.88229 h -17.75981 c -0.68307,0.68375 -8.78232,8.69339 0,17.09373 h 17.75981 l 0,-17.09373 0,0 z"
   style="fill:#e6e7e8" /><path
   id="path420"
   inkscape:connector-curvature="0"
   class="st1"
   d="m 1496.4222,116.16882 c 4.7815,0 41.0817,0.87911 41.0817,41.51335 h -9.8557 c 0,-33.01532 -31.1284,-31.55015 -31.226,-31.55015 v -9.9632 l 0,0 z"
   style="fill:#1b75bb" /><text
   id="text217-4"
   class="st8 st9 st14"
   x="770.3974"
   y="39.576252"
   style="font-size:41.21993637px;fill:#ffffff;font-family:AdobeSongStd-Light-GBpc-EUC-H"
   transform="scale(0.99950287,1.0004974)">智能存样柜及气动传输</text>

<text
   id="text201-9"
   class="st8 st9 st10"
   style="font-size:20.61006355px;fill:#ffffff;font-family:AdobeSongStd-Light-GBpc-EUC-H"
   x="436.02969"
   y="407.25012"
   transform="scale(0.99950287,1.0004974)">二项转换器</text>

<g
   id="_347943336"
   transform="matrix(1.0343617,0,0,1.0353909,24.138314,-181.02292)"><rect
   id="rect13"
   x="1416.5"
   y="475.70001"
   class="st3"
   width="84.699997"
   height="15"
   style="fill:#d0d2d3" /><rect
   id="rect15"
   x="1416.5"
   y="585.40002"
   class="st3"
   width="84.699997"
   height="13.2"
   style="fill:#d0d2d3" /><rect
   id="rect23"
   x="1444"
   y="465"
   class="st5"
   width="35.099998"
   height="10.7"
   style="fill:#404041" /><rect
   id="rect35"
   x="1416.5"
   y="490.70001"
   class="st5"
   width="84.699997"
   height="94.699997"
   style="fill:#404041" /><polygon
   id="polygon41"
   class="st13"
   points="1459,506.4 1475.9,506.4 1475.9,513.7 1493.1,503.7 1475.9,493.8 1475.9,501 1459,501 "
   style="fill:#e6e7e8" /><path
   id="_156391512"
   inkscape:connector-curvature="0"
   class="st11"
   d="m 1475.9,493.8 v 7.1 0.2 h -0.2 -16.7 v 5.4 h 16.7 0.2 v 0.2 7.1 l 17.2,-9.9 -17.2,-10.1 z m -0.3,6.9 v -7.2 -0.3 l 0.3,0.1 17.8,10.2 0.3,0.1 -0.3,0.1 -17.8,10.2 -0.3,0.1 v 0 -7.2 h -16.7 -0.2 v -0.2 -5.7 -0.2 h 0.2 l 16.7,0 0,0 z"
   style="fill:#231f20" /><polygon
   id="polygon43"
   class="st12"
   points="1440.9,513.7 1440.9,506.4 1457.8,506.4 1457.8,501 1440.9,501 1440.9,493.8 1423.7,503.7 "
   style="fill:#ec1c24" /><path
   id="_156391320"
   inkscape:connector-curvature="0"
   class="st11"
   d="m 1440.9,500.9 v -7.1 l -17.2,9.9 17.2,9.9 v -7.1 -0.2 h 0.2 16.7 V 501 h -16.7 -0.2 v -0.1 z m 0.4,-7.4 v 7.2 h 16.7 0.2 v 0.2 5.7 0.2 h -0.2 -16.7 v 7.2 0.3 l -0.3,-0.1 -17.8,-10.2 -0.3,-0.1 0.3,-0.1 17.8,-10.2 0.3,-0.1 v 0 l 0,0 z"
   style="fill:#231f20" /><path
   id="_156391248"
   inkscape:connector-curvature="0"
   class="st11"
   d="M 1476,571.6 V 554.2 554 h 0.2 16.8 0.2 v 0.2 17.4 0.1 l 0,0 c -8.8,9.2 -17.1,0 -17.1,0 l -0.1,-0.1 0,0 0,0 z m 0.3,-17.2 v 17.2 c 0.6,0.7 8.4,8.5 16.5,0 v -17.2 l -16.5,0 0,0 z"
   style="fill:#231f20" /><path
   id="_156391176"
   inkscape:connector-curvature="0"
   class="st12"
   d="m 1476.3,554.4 v 17.2 c 0.6,0.7 8.4,8.5 16.5,0 v -17.2 l -16.5,0 0,0 z"
   style="fill:#ec1c24" /><path
   id="_156391104"
   inkscape:connector-curvature="0"
   class="st13"
   d="m 1492.8,551.8 v -17.2 c -0.6,-0.7 -8.4,-8.5 -16.5,0 v 17.2 l 16.5,0 0,0 z"
   style="fill:#e6e7e8" /><path
   id="_156391032"
   inkscape:connector-curvature="0"
   class="st11"
   d="m 1492.8,551.8 v -17.2 c -0.6,-0.7 -8.4,-8.5 -16.5,0 v 17.2 l 16.5,0 0,0 z m 0.4,-17.2 v 17.4 0.2 h -0.2 -16.8 -0.2 v -0.2 -17.4 -0.1 l 0,0 c 8.8,-9.2 17.1,0 17.1,0 l 0.1,0.1 0,0 0,0 z"
   style="fill:#231f20" /><text
   id="text215"
   transform="matrix(0.9434,0,0,0.9434,1409.9796,648.6205)"
   class="st8 st9 st10"
   style="font-size:21.11039925px;fill:#ffffff;font-family:AdobeSongStd-Light-GBpc-EUC-H">取样工作站</text>


<text
   id="text213-4-0"
   transform="matrix(0.9434,0,0,0.9434,1428.8965,625.0287)"
   class="st8 st9 st10"
   style="font-size:21.11039925px;fill:#ffffff;font-family:AdobeSongStd-Light-GBpc-EUC-H">化验室</text>


<g
   id="g445"><polygon
     id="polygon41_0"
     class="st13"
     points="1449.2,546.4 1449.2,529.5 1456.5,529.5 1446.5,512.3 1436.6,529.5 1443.9,529.5 1443.9,546.4 "
     style="fill:#e6e7e8" /><path
     id="_156387216"
     inkscape:connector-curvature="0"
     class="st11"
     d="m 1436.6,529.5 h 7.1 0.2 v 0.2 16.7 h 5.4 v -16.7 -0.2 h 0.2 7.1 l -9.9,-17.2 -10.1,17.2 z m 6.9,0.3 h -7.2 -0.3 l 0.1,-0.3 10.2,-17.8 0.1,-0.3 0.1,0.3 10.2,17.8 0.1,0.3 h -0.3 -7.2 v 16.7 0.2 h -0.2 -5.7 -0.2 v -0.2 -16.7 z"
     style="fill:#231f20" /><polygon
     id="polygon43_1"
     class="st12"
     points="1456.5,564.5 1449.2,564.5 1449.2,547.6 1443.9,547.6 1443.9,564.5 1436.6,564.5 1446.5,581.7 "
     style="fill:#ec1c24" /><path
     id="_156387024"
     inkscape:connector-curvature="0"
     class="st11"
     d="m 1443.7,564.5 h -7.1 l 9.9,17.2 9.9,-17.2 h -7.1 -0.2 v -0.2 -16.7 h -5.4 v 16.7 0.2 h 0 z m -7.4,-0.4 h 7.2 v -16.7 -0.2 h 0.2 5.7 0.2 v 0.2 16.7 h 7.2 0.3 l -0.1,0.3 -10.2,17.8 -0.1,0.3 -0.1,-0.3 -10.2,-17.8 -0.1,-0.3 h 0 z"
     style="fill:#231f20" /></g></g><polygon
   id="polygon451"
   class="st1"
   points="1274.1,287.9 1274.1,377.1 1264,377.1 1264,287.9 "
   transform="matrix(0.97581377,0,0,1.4610996,24.114371,-235.7431)"
   style="fill:#1b75bb" /><polygon
   id="polygon453"
   class="st1"
   points="1181.5,245.5 1232,245.5 1232,255.6 1181.5,255.6 "
   transform="matrix(1.0009495,0,0,0.9767847,-5.5834213,-96.086495)"
   style="fill:#1b75bb" /><path
   id="path455"
   inkscape:connector-curvature="0"
   class="st1"
   d="m 1226.3169,143.71415 c 4.7815,-0.0977 41.0818,0.87911 41.0818,41.51335 h -9.8557 c 0,-33.01532 -31.1285,-31.55015 -31.2261,-31.55015 v -9.9632 l 0,0 z"
   style="fill:#1b75bb" /><g
   id="_165856088"
   transform="matrix(1.0343617,0,0,1.0353909,24.138314,-181.02292)"><rect
   id="rect11"
   x="1165.7"
   y="511.10001"
   class="st3"
   width="48.299999"
   height="76.900002"
   style="fill:#d0d2d3" /><rect
   id="rect17"
   x="1213.9"
   y="511.10001"
   class="st15"
   width="31.9"
   height="76.900002"
   style="fill:#929497" /><rect
   id="rect19"
   x="1165.7"
   y="500.70001"
   class="st5"
   width="80.099998"
   height="10.5"
   style="fill:#404041" /><rect
   id="rect21"
   x="1178.9"
   y="479.29999"
   class="st5"
   width="35.099998"
   height="21.4"
   style="fill:#404041" /><rect
   id="rect25"
   x="1157"
   y="568.70001"
   class="st5"
   width="8.6999998"
   height="10.7"
   style="fill:#404041" /><rect
   id="rect27"
   x="1157"
   y="555.29999"
   class="st3"
   width="8.6999998"
   height="13.4"
   style="fill:#d0d2d3" /><rect
   id="rect29"
   x="1165.7"
   y="588.09998"
   class="st5"
   width="80.099998"
   height="10.2"
   style="fill:#404041" /><text
   id="text213"
   transform="matrix(0.9434,0,0,0.9434,1157.035,648.6205)"
   class="st8 st9 st10"
   style="font-size:21.11039925px;fill:#ffffff;font-family:AdobeSongStd-Light-GBpc-EUC-H">存样工作站</text>


<text
   id="text213-4"
   transform="matrix(0.9434,0,0,0.9434,1179.765,625.1319)"
   class="st8 st9 st10"
   style="font-size:21.11039925px;fill:#ffffff;font-family:AdobeSongStd-Light-GBpc-EUC-H">制样间</text>


<g
   id="g467"><polygon
     id="polygon41_2"
     class="st12"
     points="1192.5,566.8 1192.5,549.9 1199.8,549.9 1189.8,532.7 1179.9,549.9 1187.1,549.9 1187.1,566.8 "
     style="fill:#ec1c24" /><path
     id="_156386808"
     inkscape:connector-curvature="0"
     class="st11"
     d="m 1179.9,549.9 h 7.1 0.2 v 0.2 16.7 h 5.4 v -16.7 -0.2 h 0.2 7.1 l -9.9,-17.2 -10.1,17.2 0,0 z m 6.9,0.4 h -7.2 -0.3 l 0.1,-0.3 10.2,-17.8 0.1,-0.3 0.1,0.3 10.2,17.8 0.1,0.3 h -0.3 -7.2 v 16.7 0.2 h -0.2 -5.7 -0.2 V 567 l 0.3,-16.7 0,0 z"
     style="fill:#231f20" /></g></g><g
   id="g3516"
   inkscape:label="气动传输_风机"
   transform="matrix(0.97581377,0,0,0.9767847,24.114371,-53.107968)"><path
     id="path471"
     inkscape:connector-curvature="0"
     class="st16"
     d="m 118.5,507.9 c 0,1.5 -0.4,3 -1.1,4.3 l 12.8,7.8 c -3.9,6.4 -10.9,10.7 -18.9,10.9 l -0.4,-15 c -1.5,0 -3,-0.4 -4.3,-1.1 l -7.8,12.8 C 92.4,523.7 88,516.7 87.8,508.7 l 15,-0.4 c 0,-1.5 0.4,-3 1.1,-4.3 l -12.8,-7.8 c 3.9,-6.4 10.9,-10.7 19,-10.9 l 0.4,15 c 1.5,0 3,0.4 4.3,1.1 l 7.8,-12.8 c 6.4,3.9 10.7,10.9 10.9,18.9 l -15,0.4 0,0 z"
     style="fill:#414042" /></g><polygon
   id="polygon473"
   class="st1"
   points="467.1,273.6 533.8,273.6 533.8,283.8 467.1,283.8 "
   transform="matrix(0.99960226,0,0,0.9767847,13.00279,-96.086495)"
   style="fill:#1b75bb" /><polygon
   id="polygon475"
   class="st1"
   points="575.9,316.1 575.9,387.7 565.8,387.7 565.8,316.1 "
   transform="matrix(0.97581377,0,0,1.597895,24.114371,-293.91243)"
   style="fill:#1b75bb" /><path
   id="path477"
   inkscape:connector-curvature="0"
   class="st1"
   d="m 545.00376,171.1618 c 4.78149,-0.0977 41.08176,0.87911 41.08176,41.51335 h -9.85572 c 0,-33.01532 -31.12846,-31.55015 -31.22604,-31.55015 l 0,-9.9632 0,0 z"
   style="fill:#1b75bb" /><text
   id="text209"
   class="st8 st9 st10"
   style="font-size:20.61006355px;fill:#ffffff;font-family:AdobeSongStd-Light-GBpc-EUC-H"
   x="314.12439"
   y="569.53217"
   transform="scale(0.99950287,1.0004974)">#1智能存样柜</text>

<circle
   d="m 286.80001,630.29999 c 0,7.01401 -5.68599,12.7 -12.7,12.7 -7.01402,0 -12.7,-5.68599 -12.7,-12.7 0,-7.01402 5.68598,-12.7 12.7,-12.7 7.01401,0 12.7,5.68598 12.7,12.7 z"
   id="_156382296"
   inkscape:label="#1鏅鸿兘瀛樻牱鏌淿绯荤粺"
   sodipodi:cx="274.10001"
   sodipodi:cy="630.29999"
   sodipodi:rx="12.7"
   sodipodi:ry="12.7"
   class="st17"
   cx="274.10001"
   cy="630.29999"
   r="12.7"
   style="fill:#00a551"
   transform="matrix(0.97581377,0,0,0.9767847,24.114371,-53.107968)" /><text
   id="text209_3"
   class="st8 st9 st10"
   style="font-size:20.61006355px;fill:#ffffff;font-family:AdobeSongStd-Light-GBpc-EUC-H"
   x="828.31073"
   y="569.53217"
   transform="scale(0.99950287,1.0004974)">#</text>

<text
   id="text484"
   class="st8 st9 st10"
   style="font-size:20.61006355px;fill:#ffffff;font-family:AdobeSongStd-Light-GBpc-EUC-H"
   x="853.55115"
   y="569.53217"
   transform="scale(0.99950287,1.0004974)">智能存样柜</text>

<text
   id="text486"
   class="st8 st9 st10"
   style="font-size:20.61006355px;fill:#ffffff;font-family:AdobeSongStd-Light-GBpc-EUC-H"
   x="841.46417"
   y="569.53217"
   transform="scale(0.99950287,1.0004974)">2</text>

<circle
   d="m 813.40001,630.29999 c 0,7.01401 -5.68598,12.7 -12.7,12.7 -7.01401,0 -12.7,-5.68599 -12.7,-12.7 0,-7.01402 5.68599,-12.7 12.7,-12.7 7.01402,0 12.7,5.68598 12.7,12.7 z"
   id="_156382080"
   inkscape:label="#2鏅鸿兘瀛樻牱鏌淿绯荤粺"
   sodipodi:cx="800.70001"
   sodipodi:cy="630.29999"
   sodipodi:rx="12.7"
   sodipodi:ry="12.7"
   class="st17"
   cx="800.70001"
   cy="630.29999"
   r="12.7"
   style="fill:#00a551"
   transform="matrix(0.97581377,0,0,0.9767847,24.114371,-53.107968)" /><text
   id="text209_4"
   class="st8 st9 st10"
   style="font-size:20.61006355px;fill:#ffffff;font-family:AdobeSongStd-Light-GBpc-EUC-H"
   x="66.702187"
   y="578.04437"
   transform="scale(0.99950287,1.0004974)">已存</text>

<text
   id="text209_5"
   class="st8 st9 st10"
   style="font-size:20.61006355px;fill:#ffffff;font-family:AdobeSongStd-Light-GBpc-EUC-H"
   x="159.26422"
   y="577.79169"
   transform="scale(0.99950287,1.0004974)">超期</text>

<rect
   id="rect491"
   x="115.64571"
   y="561.09424"
   class="st17"
   width="19.809019"
   height="19.828728"
   style="fill:#00a551" /><rect
   id="rect493"
   x="208.15285"
   y="561.09424"
   class="st12"
   width="19.809019"
   height="19.828728"
   style="fill:#ec1c24" /><rect
   id="rect287"
   x="55.145248"
   y="623.99921"
   class="st5"
   width="4.9766502"
   height="259.08145"
   style="fill:#404041" /><path
   id="path499"
   inkscape:connector-curvature="0"
   class="st5"
   d="M 56.511388,884.01927 H 185.61155 v 29.88962 H 56.511388 c 0,0 0,-29.88962 0,-29.88962 z m -1.366139,-1.46517 v 32.72228 H 187.07527 V 882.5541 c -0.0976,0 -131.930021,0 -131.930021,0 z"
   style="fill:#404041" /><polygon
   id="polygon501"
   class="st4"
   points="33.2,937.4 165.5,937.4 165.5,968 33.2,968 "
   transform="matrix(0.97581377,0,0,0.9767847,24.114371,-31.618704)"
   style="fill:#58595b" /><text
   id="text209_8"
   class="st8 st9 st18"
   x="65.106133"
   y="903.92322"
   style="font-size:15.45706081px;fill:#ffffff;font-family:AdobeSongStd-Light-GBpc-EUC-H"
   transform="scale(0.99950287,1.0004974)">共有仓位：</text>

<text
   id="text504"
   inkscape:label="#1鏅鸿兘瀛樻牱鏌淿鍏辨湁浠撲綅"
   class="st19 st9 st18"
   x="142.39104"
   y="903.92322"
   style="font-size:15.45706081px;fill:#ffffff;enable-background:new;font-family:AdobeSongStd-Light-GBpc-EUC-H"
   transform="scale(0.99950287,1.0004974)">1174</text>

<path
   id="path506"
   inkscape:connector-curvature="0"
   class="st5"
   d="M 316.07785,884.01927 H 186.97769 v 29.88962 h 129.10016 v -29.88962 z m 1.46372,-1.46517 v 32.72228 H 185.61155 V 882.5541 h 131.93002 z"
   style="fill:#404041" /><polygon
   id="polygon508"
   class="st4"
   points="299.2,937.4 166.9,937.4 166.9,968 299.2,968 "
   transform="matrix(0.97581377,0,0,0.9767847,24.114371,-31.618704)"
   style="fill:#58595b" /><text
   id="text209_9"
   class="st8 st9 st18"
   x="198.58076"
   y="903.92322"
   style="font-size:15.45706081px;fill:#ffffff;font-family:AdobeSongStd-Light-GBpc-EUC-H"
   transform="scale(0.99950287,1.0004974)">已存仓位：</text>

<text
   id="text511"
   inkscape:label="#1鏅鸿兘瀛樻牱鏌淿宸插瓨浠撲綅"
   class="st19 st9 st18"
   x="275.86566"
   y="903.92322"
   style="font-size:15.45706081px;fill:#ffffff;enable-background:new;font-family:AdobeSongStd-Light-GBpc-EUC-H"
   transform="scale(0.99950287,1.0004974)">877</text>

<path
   id="path513"
   inkscape:connector-curvature="0"
   class="st5"
   d="M 446.54415,884.01927 H 317.54157 v 29.88962 h 129.10016 v -29.88962 z m 1.46372,-1.46517 v 32.72228 H 316.07785 V 882.5541 h 131.93002 z"
   style="fill:#404041" /><polygon
   id="polygon515"
   class="st4"
   points="432.9,937.4 300.7,937.4 300.7,968 432.9,968 "
   transform="matrix(0.97581377,0,0,0.9767847,24.114371,-31.618704)"
   style="fill:#58595b" /><text
   id="text209_10"
   class="st8 st9 st18"
   x="330.88354"
   y="903.92322"
   style="font-size:15.45706081px;fill:#ffffff;font-family:AdobeSongStd-Light-GBpc-EUC-H"
   transform="scale(0.99950287,1.0004974)">未存仓位：</text>

<text
   id="text518"
   inkscape:label="#1鏅鸿兘瀛樻牱鏌淿鏈瓨浠撲綅"
   class="st19 st9 st18"
   x="408.16992"
   y="903.92322"
   style="font-size:15.45706081px;fill:#ffffff;enable-background:new;font-family:AdobeSongStd-Light-GBpc-EUC-H"
   transform="scale(0.99950287,1.0004974)">297</text>

<path
   id="path520"
   inkscape:connector-curvature="0"
   class="st5"
   d="M 577.7911,884.01927 H 448.00787 v 29.88962 H 577.7911 v -29.88962 z m 1.36614,-1.46517 v 32.72228 H 446.54415 V 882.5541 h 132.61309 z"
   style="fill:#404041" /><polygon
   id="polygon522"
   class="st4"
   points="567.4,937.4 434.4,937.4 434.4,968 567.4,968 "
   transform="matrix(0.97581377,0,0,0.9767847,24.114371,-31.618704)"
   style="fill:#58595b" /><text
   id="text209_11"
   class="st8 st9 st18"
   x="460.1102"
   y="903.91663"
   style="font-size:15.45706081px;fill:#ffffff;font-family:AdobeSongStd-Light-GBpc-EUC-H"
   transform="scale(0.99950287,1.0004974)">存样率：</text>

<text
   class="st8 st9 st18"
   id="text108"
   x="524.43005"
   y="904.54004"
   style="font-size:15.45706081px;fill:#ffffff;font-family:AdobeSongStd-Light-GBpc-EUC-H"
   transform="scale(0.99950287,1.0004974)">74.1%</text>

<rect
   id="rect287_13"
   x="158.97183"
   y="623.99921"
   class="st5"
   width="4.9766502"
   height="258.60495"
   style="fill:#404041" /><rect
   id="rect287_15"
   x="262.79843"
   y="623.99921"
   class="st5"
   width="4.9766502"
   height="259.08142"
   style="fill:#404041" /><rect
   id="rect287_17"
   x="366.625"
   y="623.99921"
   class="st5"
   width="4.9766502"
   height="258.60495"
   style="fill:#404041" /><rect
   id="rect287_19"
   x="470.45157"
   y="623.99921"
   class="st5"
   width="4.9766502"
   height="259.39908"
   style="fill:#404041" /><rect
   id="rect287_20"
   x="574.1806"
   y="623.99921"
   class="st5"
   width="4.9766502"
   height="259.24026"
   style="fill:#404041" /><rect
   id="rect287_24"
   x="612.4325"
   y="623.99921"
   class="st5"
   width="4.9766502"
   height="259.08142"
   style="fill:#404041" /><path
   id="path546"
   inkscape:connector-curvature="0"
   class="st5"
   d="M 56.511388,622.53401 H 577.7911 V 592.6444 H 56.511388 c 0,0 0,29.88961 0,29.88961 z m -1.366139,1.46518 V 591.2769 H 579.15724 v 32.72229 c 0,0 -524.011991,0 -524.011991,0 z"
   style="fill:#404041" /><polygon
   id="polygon548"
   class="st4"
   points="33.2,661.1 33.2,691.7 567.4,691.7 567.4,661.1 "
   style="fill:#58595b"
   transform="matrix(0.97581377,0,0,0.9767847,24.114371,-53.107968)" /><text
   id="text209_29"
   inkscape:label="#1鏅鸿兘瀛樻牱鏌淿4鍙锋煖宸插瓨"
   class="st19 st9 st20"
   style="font-size:18.03351402px;fill:#ffffff;enable-background:new;font-family:AdobeSongStd-Light-GBpc-EUC-H"
   x="386.11688"
   y="616.84174"
   transform="scale(0.99950287,1.0004974)">0</text>

<text
   id="text571"
   class="st8 st9 st20"
   style="font-size:18.03351402px;fill:#ffffff;font-family:AdobeSongStd-Light-GBpc-EUC-H"
   x="426.82874"
   y="616.84174"
   transform="scale(0.99950287,1.0004974)">224</text>

<text
   id="text573"
   class="st8 st9 st20"
   style="font-size:18.03351402px;fill:#ffffff;font-family:AdobeSongStd-Light-GBpc-EUC-H"
   x="416.63385"
   y="616.84174"
   transform="scale(0.99950287,1.0004974)">/</text>

<path
   id="path575"
   inkscape:connector-curvature="0"
   class="st5"
   d="M 613.79863,622.53401 H 1135.0783 V 592.6444 H 613.79863 v 29.88961 z m -1.36614,1.46518 V 591.2769 h 524.01201 v 32.72229 H 612.43249 z"
   style="fill:#404041" /><polygon
   id="polygon577"
   class="st4"
   points="604.3,661.1 604.3,691.7 1138.5,691.7 1138.5,661.1 "
   style="fill:#58595b"
   transform="matrix(0.97581377,0,0,0.9767847,24.114371,-53.107968)" /><text
   id="text209_30"
   inkscape:label="#2鏅鸿兘瀛樻牱鏌淿1鍙锋煖宸插瓨"
   class="st19 st9 st20"
   style="font-size:18.03351402px;fill:#ffffff;enable-background:new;font-family:AdobeSongStd-Light-GBpc-EUC-H"
   x="631.08215"
   y="616.84174"
   transform="scale(0.99950287,1.0004974)">102</text>

<text
   id="text580"
   class="st8 st9 st20"
   style="font-size:18.03351402px;fill:#ffffff;font-family:AdobeSongStd-Light-GBpc-EUC-H"
   x="675.50287"
   y="616.84174"
   transform="scale(0.99950287,1.0004974)">224</text>

<text
   id="text582"
   class="st8 st9 st20"
   style="font-size:18.03351402px;fill:#ffffff;font-family:AdobeSongStd-Light-GBpc-EUC-H"
   x="665.30792"
   y="616.84174"
   transform="scale(0.99950287,1.0004974)">/</text>

<text
   id="text209_31"
   inkscape:label="#2鏅鸿兘瀛樻牱鏌淿2鍙锋煖宸插瓨"
   class="st19 st9 st20"
   style="font-size:18.03351402px;fill:#ffffff;enable-background:new;font-family:AdobeSongStd-Light-GBpc-EUC-H"
   x="735.95709"
   y="616.84174"
   transform="scale(0.99950287,1.0004974)">0</text>

<text
   id="text585"
   class="st8 st9 st20"
   style="font-size:18.03351402px;fill:#ffffff;font-family:AdobeSongStd-Light-GBpc-EUC-H"
   x="776.66943"
   y="616.84174"
   transform="scale(0.99950287,1.0004974)">224</text>

<text
   id="text587"
   class="st8 st9 st20"
   style="font-size:18.03351402px;fill:#ffffff;font-family:AdobeSongStd-Light-GBpc-EUC-H"
   x="766.474"
   y="616.84174"
   transform="scale(0.99950287,1.0004974)">/</text>

<text
   id="text209_32"
   inkscape:label="#2鏅鸿兘瀛樻牱鏌淿3鍙锋煖宸插瓨"
   class="st19 st9 st20"
   style="font-size:18.03351402px;fill:#ffffff;enable-background:new;font-family:AdobeSongStd-Light-GBpc-EUC-H"
   x="839.8324"
   y="616.84174"
   transform="scale(0.99950287,1.0004974)">0</text>

<text
   id="text590"
   class="st8 st9 st20"
   style="font-size:18.03351402px;fill:#ffffff;font-family:AdobeSongStd-Light-GBpc-EUC-H"
   x="880.54474"
   y="616.84174"
   transform="scale(0.99950287,1.0004974)">224</text>

<text
   id="text592"
   class="st8 st9 st20"
   style="font-size:18.03351402px;fill:#ffffff;font-family:AdobeSongStd-Light-GBpc-EUC-H"
   x="870.34937"
   y="616.84174"
   transform="scale(0.99950287,1.0004974)">/</text>

<text
   id="text209_33"
   inkscape:label="#2鏅鸿兘瀛樻牱鏌淿5鍙锋煖宸插瓨"
   class="st19 st9 st20"
   style="font-size:18.03351402px;fill:#ffffff;enable-background:new;font-family:AdobeSongStd-Light-GBpc-EUC-H"
   x="1047.5824"
   y="616.84174"
   transform="scale(0.99950287,1.0004974)">0</text>

<text
   id="text595"
   class="st8 st9 st20"
   style="font-size:18.03351402px;fill:#ffffff;font-family:AdobeSongStd-Light-GBpc-EUC-H"
   x="1088.2943"
   y="616.84174"
   transform="scale(0.99950287,1.0004974)">224</text>

<text
   id="text597"
   class="st8 st9 st20"
   style="font-size:18.03351402px;fill:#ffffff;font-family:AdobeSongStd-Light-GBpc-EUC-H"
   x="1078.0994"
   y="616.84174"
   transform="scale(0.99950287,1.0004974)">/</text>

<text
   id="text209_34"
   inkscape:label="#2鏅鸿兘瀛樻牱鏌淿4鍙锋煖宸插瓨"
   class="st19 st9 st20"
   style="font-size:18.03351402px;fill:#ffffff;enable-background:new;font-family:AdobeSongStd-Light-GBpc-EUC-H"
   x="941.21503"
   y="616.84174"
   transform="scale(0.99950287,1.0004974)">0</text>

<text
   id="text600"
   class="st8 st9 st20"
   style="font-size:18.03351402px;fill:#ffffff;font-family:AdobeSongStd-Light-GBpc-EUC-H"
   x="981.92725"
   y="616.84174"
   transform="scale(0.99950287,1.0004974)">224</text>

<text
   id="text602"
   class="st8 st9 st20"
   style="font-size:18.03351402px;fill:#ffffff;font-family:AdobeSongStd-Light-GBpc-EUC-H"
   x="971.73199"
   y="616.84174"
   transform="scale(0.99950287,1.0004974)">/</text>

<path
   id="path604"
   inkscape:connector-curvature="0"
   class="st5"
   d="m 613.79863,884.01927 h 129.10016 v 29.88962 H 613.79863 v -29.88962 l 0,0 z m -1.36614,-1.46517 v 32.72228 H 744.36251 V 882.5541 H 612.43249 z"
   style="fill:#404041" /><polygon
   id="polygon606"
   class="st4"
   points="604.3,937.4 736.6,937.4 736.6,968 604.3,968 "
   transform="matrix(0.97581377,0,0,0.9767847,24.114371,-31.618704)"
   style="fill:#58595b" /><text
   id="text209_35"
   class="st8 st9 st18"
   x="622.69696"
   y="903.92322"
   style="font-size:15.45706081px;fill:#ffffff;font-family:AdobeSongStd-Light-GBpc-EUC-H"
   transform="scale(0.99950287,1.0004974)">共有仓位：</text>

<text
   id="text609"
   inkscape:label="#2鏅鸿兘瀛樻牱鏌淿鍏辨湁浠撲綅"
   class="st19 st9 st18"
   x="699.98181"
   y="903.92322"
   style="font-size:15.45706081px;fill:#ffffff;enable-background:new;font-family:AdobeSongStd-Light-GBpc-EUC-H"
   transform="scale(0.99950287,1.0004974)">1174</text>

<path
   id="path611"
   inkscape:connector-curvature="0"
   class="st5"
   d="M 873.3651,884.01927 H 744.36251 v 29.88962 h 129.10017 v -29.88962 z m 1.46372,-1.46517 v 32.72228 H 742.89879 V 882.5541 h 131.93003 z"
   style="fill:#404041" /><polygon
   id="polygon613"
   class="st4"
   points="870.3,937.4 738.1,937.4 738.1,968 870.3,968 "
   transform="matrix(0.97581377,0,0,0.9767847,24.114371,-31.618704)"
   style="fill:#58595b" /><text
   id="text209_36"
   class="st8 st9 st18"
   x="756.17145"
   y="903.92322"
   style="font-size:15.45706081px;fill:#ffffff;font-family:AdobeSongStd-Light-GBpc-EUC-H"
   transform="scale(0.99950287,1.0004974)">已存仓位：</text>

<text
   id="text616"
   inkscape:label="#2鏅鸿兘瀛樻牱鏌淿宸插瓨浠撲綅"
   class="st19 st9 st18"
   x="833.45636"
   y="903.92322"
   style="font-size:15.45706081px;fill:#ffffff;enable-background:new;font-family:AdobeSongStd-Light-GBpc-EUC-H"
   transform="scale(0.99950287,1.0004974)">877</text>

<path
   id="path618"
   inkscape:connector-curvature="0"
   class="st5"
   d="M 1003.929,884.01927 H 874.82882 v 29.88962 H 1003.929 v -29.88962 z m 1.3661,-1.46517 v 32.72228 h -131.93 V 882.5541 h 131.93 z"
   style="fill:#404041" /><polygon
   id="polygon620"
   class="st4"
   points="1004.1,937.4 871.8,937.4 871.8,968 1004.1,968 "
   transform="matrix(0.97581377,0,0,0.9767847,24.114371,-31.618704)"
   style="fill:#58595b" /><text
   id="text209_37"
   class="st8 st9 st18"
   x="888.47437"
   y="903.92322"
   style="font-size:15.45706081px;fill:#ffffff;font-family:AdobeSongStd-Light-GBpc-EUC-H"
   transform="scale(0.99950287,1.0004974)">未存仓位：</text>

<text
   id="text623"
   inkscape:label="#2鏅鸿兘瀛樻牱鏌淿鏈瓨浠撲綅"
   class="st19 st9 st18"
   x="965.76074"
   y="903.92322"
   style="font-size:15.45706081px;fill:#ffffff;enable-background:new;font-family:AdobeSongStd-Light-GBpc-EUC-H"
   transform="scale(0.99950287,1.0004974)">297</text>

<path
   id="path625"
   inkscape:connector-curvature="0"
   class="st5"
   d="m 1135.0783,884.01927 h -129.7832 v 29.88962 h 129.7832 v -29.88962 z m 1.3662,-1.46517 v 32.72228 H 1003.8314 V 882.5541 h 132.6131 l 0,0 z"
   style="fill:#404041" /><polygon
   id="polygon627"
   class="st4"
   points="1138.5,937.4 1005.5,937.4 1005.5,968 1138.5,968 "
   transform="matrix(0.97581377,0,0,0.9767847,24.114371,-31.618704)"
   style="fill:#58595b" /><text
   id="text209_38"
   class="st8 st9 st18"
   x="1017.7004"
   y="903.91663"
   style="font-size:15.45706081px;fill:#ffffff;font-family:AdobeSongStd-Light-GBpc-EUC-H"
   transform="scale(0.99950287,1.0004974)">存样率：</text>

<rect
   id="rect287_40"
   x="716.25909"
   y="623.99921"
   class="st5"
   width="4.9766502"
   height="259.08142"
   style="fill:#404041" /><rect
   id="rect287_42"
   x="820.08569"
   y="623.99921"
   class="st5"
   width="4.9766502"
   height="259.71674"
   style="fill:#404041" /><rect
   id="rect287_44"
   x="923.91223"
   y="623.99921"
   class="st5"
   width="4.9766502"
   height="258.92258"
   style="fill:#404041" /><rect
   id="rect287_46"
   x="1027.7389"
   y="623.99921"
   class="st5"
   width="4.9766502"
   height="259.24026"
   style="fill:#404041" /><rect
   id="rect287_47"
   x="1131.5654"
   y="623.99921"
   class="st5"
   width="4.9766502"
   height="258.92258"
   style="fill:#404041" /><g
   id="_347942712"
   transform="matrix(1.0343617,0,0,1.0353909,24.138314,-181.02292)"><polygon
     id="_156382752"
     class="st1"
     points="465.5,662.7 465.5,672.2 504.3,672.2 504.3,662.7 "
     style="fill:#1b75bb" /><polygon
     id="_165858944"
     class="st1"
     points="435.4,702.7 425.8,702.7 425.8,745.9 435.4,745.9 "
     style="fill:#1b75bb" /><path
     id="_165856976"
     inkscape:connector-curvature="0"
     class="st1"
     d="m 465.5,662.7 c -4.6,0 -39.7,0.9 -39.7,40.1 h 9.6 c 0,-31.9 30.1,-30.5 30.2,-30.5 v -9.6 l -0.1,0 z"
     style="fill:#1b75bb" /><path
     id="_165860864"
     inkscape:connector-curvature="0"
     class="st1"
     d="m 504.3,672.2 c 4.6,0 39.7,-0.9 39.7,-40.1 h -9.6 c 0,31.9 -30.1,30.5 -30.2,30.5 v 9.6 l 0.1,0 z"
     style="fill:#1b75bb" /></g><g
   id="_165855008"
   transform="matrix(1.0343617,0,0,1.0353909,24.138314,-181.02292)"><polygon
     id="_165858056"
     class="st1"
     points="639.8,662.7 639.8,672.2 601,672.2 601,662.7 "
     style="fill:#1b75bb" /><polygon
     id="_126009904"
     class="st1"
     points="670,702.7 679.5,702.7 679.5,745.9 670,745.9 "
     style="fill:#1b75bb" /><path
     id="_165862736"
     inkscape:connector-curvature="0"
     class="st1"
     d="m 639.8,662.7 c 4.6,0 39.7,0.9 39.7,40.1 H 670 c 0,-31.9 -30.1,-30.5 -30.2,-30.5 v -9.6 l 0,0 z"
     style="fill:#1b75bb" /><path
     id="_165862832"
     inkscape:connector-curvature="0"
     class="st1"
     d="m 601,672.2 c -4.6,0 -39.7,-0.9 -39.7,-40.1 h 9.6 c 0,31.9 30.1,30.5 30.2,30.5 v 9.6 l -0.1,0 z"
     style="fill:#1b75bb" /></g><polygon
   id="polygon723"
   class="st1"
   points="1829.1,228.4 1829.1,377.1 1819,377.1 1819,228.4 "
   transform="matrix(0.97581377,0,0,1.2929429,24.114371,-172.33123)"
   style="fill:#1b75bb" /><polygon
   id="polygon725"
   class="st1"
   points="1717.3,185.9 1787,185.9 1787,196 1717.3,196 "
   transform="matrix(1.0122371,0,0,0.9767847,-38.435325,-96.086495)"
   style="fill:#1b75bb" /><path
   id="path727"
   inkscape:connector-curvature="0"
   class="st1"
   d="m 1767.8936,85.497781 c 4.7815,0 41.0817,0.879106 41.0817,41.513349 h -9.8557 c 0,-33.015322 -31.1284,-31.550145 -31.226,-31.550145 v -9.963204 l 0,0 z"
   style="fill:#1b75bb" /><rect
   id="rect108"
   x="302.02612"
   y="78.855652"
   class="st4"
   width="6.2452083"
   height="108.91149"
   style="fill:#58595b" /><path
   id="path730"
   inkscape:connector-curvature="0"
   class="st5"
   d="m 309.73506,100.63794 h 17.27191 V 80.223144 h -17.27191 v 20.414796 z m 18.05256,1.46518 h -18.73563 -0.68307 v -0.68375 -21.782297 -0.683749 h 0.68307 18.73563 0.68307 v 0.683749 21.782297 0.68375 h -0.68307 z"
   style="fill:#404041" /><path
   id="path732"
   inkscape:connector-curvature="0"
   class="st5"
   d="m 309.73506,131.30898 h 17.27191 v -20.4148 h -17.27191 v 20.4148 z m 18.05256,1.3675 h -18.73563 -0.68307 v -0.68375 -21.7823 -0.68375 h 0.68307 18.73563 0.68307 v 0.68375 21.7823 0.68375 h -0.68307 z"
   style="fill:#404041" /><rect
   id="rect114"
   x="195.76001"
   y="78.855652"
   class="st5"
   width="106.26612"
   height="28.424435"
   style="fill:#404041" /><polygon
   id="rect121"
   class="st21"
   points="284.8,290.6 284.8,208.2 175.9,208.2 175.9,290.6 "
   style="fill:url(#linearGradient3488)"
   transform="matrix(0.97581377,0,0,0.9767847,24.114371,-96.086495)" /><g
   id="g4554"
   transform="matrix(0.95346825,0,0,0.9767847,27.645825,-96.086495)"
   inkscape:label="鍥涢」杞崲鍣╛鏃嬭浆"><rect
     id="rect172"
     x="164"
     y="240.8"
     inkscape:label="#rect172"
     class="st3"
     width="150.39999"
     height="19.5"
     style="fill:#d0d2d3" /><path
     id="path737"
     inkscape:connector-curvature="0"
     class="st5"
     d="M 164,260.3 H 314.4 V 240.8 H 164 l 0,19.5 0,0 z m 151.1,1.4 h -151.9 -0.7 v -0.7 -21 -0.7 h 0.7 151.8 0.7 v 0.7 21 0.7 h -0.6 z"
     style="fill:#404041" /></g><rect
   id="rect110"
   x="309.73508"
   y="80.320831"
   class="st22"
   width="17.271904"
   height="20.414801"
   style="fill:#6d6e70" /><text
   id="text164"
   inkscape:label="鍥涢」杞崲鍣"
   class="st19 st9 st23"
   x="314.09677"
   y="96.967216"
   style="font-size:16.95850945px;fill:#ffffff;enable-background:new;font-family:AdobeSongStd-Light-GBpc-EUC-H"
   transform="scale(0.99950287,1.0004974)">1</text>

<rect
   id="rect110_48"
   x="309.73508"
   y="110.89418"
   class="st22"
   width="17.271904"
   height="20.414801"
   style="fill:#6d6e70" /><text
   id="text174"
   inkscape:label="鍥涢」杞崲鍣"
   class="st19 st9 st23"
   x="314.15869"
   y="127.56902"
   style="font-size:16.95850945px;fill:#ffffff;enable-background:new;font-family:AdobeSongStd-Light-GBpc-EUC-H"
   transform="scale(0.99950287,1.0004974)">2</text>

<g
   id="g4558"
   transform="matrix(0.97581377,0,0,0.94840658,24.114371,-46.865767)"
   inkscape:label="浜岄」杞崲鍣╛鏃嬭浆"><rect
     id="rect172-7"
     x="560.40002"
     y="394.20001"
     class="st3"
     width="20.799999"
     height="156.39999"
     style="fill:#d0d2d3" /><path
     id="path746"
     inkscape:connector-curvature="0"
     class="st5"
     d="m 560.4,550.5 h 20.8 V 394.2 h -20.8 v 156.3 z m 21.5,1.5 H 559.7 559 v -0.7 -157.9 -0.7 h 0.7 22.2 0.7 v 0.7 157.8 0.7 h -0.7 z"
     style="fill:#404041" /></g><path
   id="_126014344"
   inkscape:connector-curvature="0"
   class="st5"
   d="m 309.73506,186.30196 h 17.27191 v -20.4148 h -17.27191 v 20.4148 z m 18.05256,1.46518 h -18.73563 -0.68307 v -0.68375 -21.7823 -0.68375 h 0.68307 18.73563 0.68307 v 0.68375 21.7823 0.68375 h -0.68307 z"
   style="fill:#404041" /><rect
   id="rect110_49"
   x="309.73508"
   y="165.98483"
   class="st22"
   width="17.271904"
   height="20.414801"
   style="fill:#6d6e70" /><text
   id="text168"
   inkscape:label="鍥涢」杞崲鍣"
   class="st19 st9 st23"
   x="313.88412"
   y="182.47255"
   style="font-size:16.95850945px;fill:#ffffff;enable-background:new;font-family:AdobeSongStd-Light-GBpc-EUC-H"
   transform="scale(0.99950287,1.0004974)">4</text>

<g
   id="_156384528"
   transform="matrix(1.0343617,0,0,1.0353909,24.138314,-181.02292)"><rect
   id="rect11_50"
   x="1689.3"
   y="511.10001"
   class="st3"
   width="48.299999"
   height="76.900002"
   style="fill:#d0d2d3" /><rect
   id="rect17_51"
   x="1737.5"
   y="511.10001"
   class="st15"
   width="31.9"
   height="76.900002"
   style="fill:#929497" /><rect
   id="rect19_52"
   x="1689.3"
   y="500.70001"
   class="st5"
   width="80.099998"
   height="10.5"
   style="fill:#404041" /><rect
   id="rect21_53"
   x="1702.5"
   y="479.29999"
   class="st5"
   width="35.099998"
   height="21.4"
   style="fill:#404041" /><rect
   id="rect25_54"
   x="1680.6"
   y="568.70001"
   class="st5"
   width="8.6999998"
   height="10.7"
   style="fill:#404041" /><rect
   id="rect27_55"
   x="1680.6"
   y="555.29999"
   class="st3"
   width="8.6999998"
   height="13.4"
   style="fill:#d0d2d3" /><rect
   id="rect29_56"
   x="1689.3"
   y="588.09998"
   class="st5"
   width="80.099998"
   height="10.2"
   style="fill:#404041" /><text
   id="text213_57"
   transform="matrix(0.9434,0,0,0.9434,1680.6315,648.6205)"
   class="st8 st9 st10"
   style="font-size:21.11039925px;fill:#ffffff;font-family:AdobeSongStd-Light-GBpc-EUC-H">弃样工作站</text>


<text
   id="text213-4_58"
   transform="matrix(0.9434,0,0,0.9434,1700.0715,625.1319)"
   class="st8 st9 st10"
   style="font-size:21.11039925px;fill:#ffffff;font-family:AdobeSongStd-Light-GBpc-EUC-H">弃样间</text>


<g
   id="g765"><polygon
     id="polygon43_59"
     class="st12"
     points="1723.4,549.2 1716.1,549.2 1716.1,532.4 1710.7,532.4 1710.7,549.2 1703.5,549.2 1713.4,566.5 "
     style="fill:#ec1c24" /><path
     id="_347937840"
     inkscape:connector-curvature="0"
     class="st11"
     d="m 1710.6,549.2 h -7.1 l 9.9,17.2 9.9,-17.2 h -7.1 -0.2 V 549 532.3 h -5.4 v 16.7 0.2 h 0 z m -7.4,-0.3 h 7.2 V 532.2 532 h 0.2 5.7 0.2 v 0.2 16.7 h 7.2 0.3 l -0.1,0.3 -10.2,17.8 -0.1,0.3 -0.1,-0.3 -10.2,-17.8 -0.1,-0.3 h 0 z"
     style="fill:#231f20" /></g></g><text
   id="text209_60"
   class="st8 st9 st10"
   style="font-size:20.61006355px;fill:#ffffff;font-family:AdobeSongStd-Light-GBpc-EUC-H"
   x="1510.2405"
   y="569.53217"
   transform="scale(0.99950287,1.0004974)">气动传输</text>

<circle
   d="m 1511.9,630.29999 c 0,7.01401 -5.686,12.7 -12.7,12.7 -7.0141,0 -12.7,-5.68599 -12.7,-12.7 0,-7.01402 5.6859,-12.7 12.7,-12.7 7.014,0 12.7,5.68598 12.7,12.7 z"
   id="_347939448"
   inkscape:label="姘斿姩浼犺緭_绯荤粺"
   sodipodi:cx="1499.2"
   sodipodi:cy="630.29999"
   sodipodi:rx="12.7"
   sodipodi:ry="12.7"
   class="st17"
   cx="1499.2"
   cy="630.29999"
   r="12.7"
   style="fill:#00a551"
   transform="matrix(0.97581377,0,0,0.9767847,24.114371,-53.107968)" /><path
   id="path776"
   inkscape:connector-curvature="0"
   class="st3"
   d="m 479.91698,80.516179 v 19.828731 c -18.24771,0 -14.73478,0 -32.88492,0 V 80.516179 c 18.05255,0 14.53962,0 32.88492,0 z m -19.41869,2.832676 0,0 h 1.75646 11.0267 v 14.163378 h -11.0267 -1.75646 0 l -8.29442,-7.130528 8.29442,-7.03285 0,0 z m 1.75646,1.758212 V 95.75402 h 9.27023 V 85.107067 h -9.27023 z m -1.75646,0.586071 -5.56214,4.786245 5.56214,4.786245 v -9.57249 l 0,0 z m 17.46707,-3.223389 h -28.98167 c 0,4.981602 0,11.037667 0,15.92159 h 28.98167 c 0,-5.860708 0,-9.865525 0,-15.92159 z"
   style="fill:#d0d2d3" /><path
   id="path778"
   inkscape:connector-curvature="0"
   class="st3"
   d="m 654.19732,80.516179 v 19.828731 c -18.24772,0 -14.73479,0 -32.88492,0 V 80.516179 c 18.05255,0 14.53962,0 32.88492,0 z m -19.41869,2.832676 0,0 h 1.75646 11.0267 v 14.163378 h -11.0267 -1.75646 l 0,0 -8.29442,-7.130528 8.29442,-7.03285 0,0 z m 1.75646,1.758212 V 95.75402 h 9.27023 V 85.107067 h -9.27023 z m -1.75646,0.586071 -5.56214,4.786245 5.56214,4.786245 v -9.57249 l 0,0 z m 17.46706,-3.223389 h -28.98166 c 0,4.981602 0,11.037667 0,15.92159 h 28.98166 c 0,-5.860708 0,-9.865525 0,-15.92159 z"
   style="fill:#d0d2d3" /><path
   id="path780"
   inkscape:connector-curvature="0"
   class="st3"
   d="m 828.47766,80.516179 v 19.828731 c -18.24772,0 -14.73479,0 -32.88492,0 V 80.516179 c 18.05255,0 14.53962,0 32.88492,0 z m -19.41869,2.832676 0,0 h 1.75646 11.0267 v 14.163378 h -11.0267 -1.75646 l 0,0 -8.29442,-7.130528 8.29442,-7.03285 0,0 z m 1.75646,1.758212 V 95.75402 h 9.27023 V 85.107067 h -9.27023 z m -1.75646,0.586071 -5.56214,4.786245 5.56214,4.786245 v -9.57249 l 0,0 z m 17.46706,-3.223389 h -28.98166 c 0,4.981602 0,11.037667 0,15.92159 h 28.98166 c 0,-5.860708 0,-9.865525 0,-15.92159 z"
   style="fill:#d0d2d3" /><path
   id="path782"
   inkscape:connector-curvature="0"
   class="st3"
   d="m 1002.758,80.516179 v 19.828731 c -18.24772,0 -14.73479,0 -32.88492,0 V 80.516179 c 18.15013,0 14.53962,0 32.88492,0 z m -19.41869,2.832676 0,0 h 1.75646 11.0267 v 14.163378 h -11.0267 -1.75646 l 0,0 -8.29442,-7.130528 8.29442,-7.03285 0,0 z m 1.75646,1.758212 V 95.75402 H 994.366 V 85.107067 h -9.27023 z m -1.75646,0.586071 -5.56214,4.786245 5.56214,4.786245 v -9.57249 l 0,0 z m 17.46709,-3.223389 h -28.9817 c 0,4.981602 0,11.037667 0,15.92159 h 28.9817 c 0,-5.860708 0,-9.865525 0,-15.92159 z"
   style="fill:#d0d2d3" /><path
   id="path784"
   inkscape:connector-curvature="0"
   class="st3"
   d="m 1177.0383,80.516179 v 19.828731 c -18.2477,0 -14.7347,0 -32.8849,0 V 80.516179 c 18.1502,0 14.5396,0 32.8849,0 z m -19.4187,2.832676 0,0 h 1.7565 11.0267 v 14.163378 h -11.0267 -1.7565 l 0,0 -8.2944,-7.130528 8.2944,-7.03285 0,0 z m 1.7565,1.758212 V 95.75402 h 9.2702 V 85.107067 h -9.2702 z m -1.7565,0.586071 -5.5621,4.786245 5.5621,4.786245 v -9.57249 l 0,0 z m 17.4671,-3.223389 h -28.9817 c 0,4.981602 0,11.037667 0,15.92159 h 28.9817 c 0,-5.860708 0,-9.865525 0,-15.92159 z"
   style="fill:#d0d2d3" /><path
   id="path786"
   inkscape:connector-curvature="0"
   class="st3"
   d="m 1351.3187,80.516179 v 19.828731 c -18.2477,0 -14.7348,0 -32.8849,0 V 80.516179 c 18.1501,0 14.5396,0 32.8849,0 z m -19.4187,2.832676 0,0 h 1.7565 11.0266 v 14.163378 h -11.0266 -1.7565 l 0,0 -8.2944,-7.130528 8.2944,-7.03285 0,0 z m 1.7565,1.758212 V 95.75402 h 9.2702 V 85.107067 h -9.2702 z m -1.7565,0.586071 -5.5622,4.786245 5.5622,4.786245 v -9.57249 l 0,0 z m 17.4671,-3.223389 h -28.9817 c 0,4.981602 0,11.037667 0,15.92159 h 28.9817 c 0,-5.860708 0,-9.865525 0,-15.92159 z"
   style="fill:#d0d2d3" /><path
   id="path788"
   inkscape:connector-curvature="0"
   class="st3"
   d="m 1525.599,80.516179 v 19.828731 c -18.2477,0 -14.7348,0 -32.8849,0 V 80.516179 c 18.1501,0 14.5396,0 32.8849,0 z m -19.4187,2.832676 0,0 h 1.7565 11.0267 v 14.163378 h -11.0267 -1.7565 l 0,0 -8.2944,-7.130528 8.2944,-7.03285 0,0 z m 1.7565,1.758212 V 95.75402 h 9.2702 V 85.107067 h -9.2702 z m -1.7565,0.586071 -5.5621,4.786245 5.5621,4.786245 v -9.57249 l 0,0 z m 17.4671,-3.223389 h -28.9817 c 0,4.981602 0,11.037667 0,15.92159 h 28.9817 c 0,-5.860708 0,-9.865525 0,-15.92159 z"
   style="fill:#d0d2d3" /><path
   id="path790"
   inkscape:connector-curvature="0"
   class="st3"
   d="m 1699.8794,80.516179 v 19.828731 c -18.2478,0 -14.7348,0 -32.885,0 V 80.516179 c 18.1502,0 14.6372,0 32.885,0 z m -19.4187,2.832676 0,0 h 1.7564 11.0267 v 14.163378 h -11.0267 -1.7564 l 0,0 -8.2945,-7.130528 8.2945,-7.03285 0,0 z m 1.7564,1.758212 V 95.75402 h 9.2703 V 85.107067 h -9.2703 z m -1.7564,0.586071 -5.5622,4.786245 5.5622,4.786245 v -9.57249 l 0,0 z m 17.467,-3.223389 h -28.9816 c 0,4.981602 0,11.037667 0,15.92159 h 28.9816 c 0,-5.860708 0,-9.865525 0,-15.92159 z"
   style="fill:#d0d2d3" /><polygon
   id="polygon792"
   class="st1"
   points="1538.7,196 1538.7,185.9 1683.6,185.9 1683.6,196 "
   transform="matrix(0.97581377,0,0,0.9767847,24.114371,-96.086495)"
   style="fill:#1b75bb" /><polygon
   id="polygon794"
   class="st1"
   points="1360.1,196 1360.1,185.9 1505,185.9 1505,196 "
   transform="matrix(0.97581377,0,0,0.9767847,24.114371,-96.086495)"
   style="fill:#1b75bb" /><polygon
   id="polygon796"
   class="st1"
   points="1181.5,196 1181.5,185.9 1326.4,185.9 1326.4,196 "
   transform="matrix(0.97581377,0,0,0.9767847,24.114371,-96.086495)"
   style="fill:#1b75bb" /><polygon
   id="polygon798"
   class="st1"
   points="1002.9,196 1002.9,185.9 1147.8,185.9 1147.8,196 "
   transform="matrix(0.97581377,0,0,0.9767847,24.114371,-96.086495)"
   style="fill:#1b75bb" /><polygon
   id="polygon800"
   class="st1"
   points="824.3,196 824.3,185.9 969.2,185.9 969.2,196 "
   transform="matrix(0.97581377,0,0,0.9767847,24.114371,-96.086495)"
   style="fill:#1b75bb" /><polygon
   id="polygon802"
   class="st1"
   points="645.7,196 645.7,185.9 790.6,185.9 790.6,196 "
   transform="matrix(0.97581377,0,0,0.9767847,24.114371,-96.086495)"
   style="fill:#1b75bb" /><polygon
   id="polygon804"
   class="st1"
   points="467.1,196 467.1,185.9 612,185.9 612,196 "
   transform="matrix(0.97581377,0,0,0.9767847,24.114371,-96.086495)"
   style="fill:#1b75bb" /><polygon
   id="polygon806"
   class="st1"
   points="311.9,196 311.9,185.9 433.3,185.9 433.3,196 "
   transform="matrix(0.97581377,0,0,0.9767847,24.114371,-96.086495)"
   style="fill:#1b75bb" /><path
   id="path808"
   inkscape:connector-curvature="0"
   class="st3"
   d="m 479.91698,111.18722 v 19.82873 c -18.24771,0 -14.73478,0 -32.88492,0 v -19.82873 c 18.05255,0 14.53962,0 32.88492,0 z m -19.41869,2.83267 0,0 h 1.75646 11.0267 v 14.16338 h -11.0267 -1.75646 0 l -8.29442,-7.13053 8.29442,-7.03285 0,0 z m 1.75646,1.75822 v 10.64695 h 9.27023 v -10.64695 h -9.27023 z m -1.75646,0.58607 -5.56214,4.78624 5.56214,4.78625 c 0,-0.0977 0,-9.57249 0,-9.57249 z m 17.46707,-3.22339 h -28.98167 c 0,4.9816 0,11.03767 0,15.92159 h 28.98167 c 0,-5.86071 0,-9.86553 0,-15.92159 z"
   style="fill:#d0d2d3" /><path
   id="path810"
   inkscape:connector-curvature="0"
   class="st3"
   d="m 654.19732,111.18722 v 19.82873 c -18.24772,0 -14.73479,0 -32.88492,0 v -19.82873 c 18.05255,0 14.53962,0 32.88492,0 z m -19.41869,2.83267 0,0 h 1.75646 11.0267 v 14.16338 h -11.0267 -1.75646 l 0,0 -8.29442,-7.13053 8.29442,-7.03285 0,0 z m 1.75646,1.75822 v 10.64695 h 9.27023 v -10.64695 h -9.27023 z m -1.75646,0.58607 -5.56214,4.78624 5.56214,4.78625 c 0,-0.0977 0,-9.57249 0,-9.57249 z m 17.46706,-3.22339 h -28.98166 c 0,4.9816 0,11.03767 0,15.92159 h 28.98166 c 0,-5.86071 0,-9.86553 0,-15.92159 z"
   style="fill:#d0d2d3" /><path
   id="path812"
   inkscape:connector-curvature="0"
   class="st3"
   d="m 828.47766,111.18722 v 19.82873 c -18.24772,0 -14.73479,0 -32.88492,0 v -19.82873 c 18.05255,0 14.53962,0 32.88492,0 z m -19.41869,2.83267 0,0 h 1.75646 11.0267 v 14.16338 h -11.0267 -1.75646 l 0,0 -8.29442,-7.13053 8.29442,-7.03285 0,0 z m 1.75646,1.75822 v 10.64695 h 9.27023 v -10.64695 h -9.27023 z m -1.75646,0.58607 -5.56214,4.78624 5.56214,4.78625 c 0,-0.0977 0,-9.57249 0,-9.57249 z m 17.46706,-3.22339 h -28.98166 c 0,4.9816 0,11.03767 0,15.92159 h 28.98166 c 0,-5.86071 0,-9.86553 0,-15.92159 z"
   style="fill:#d0d2d3" /><path
   id="path814"
   inkscape:connector-curvature="0"
   class="st3"
   d="m 1002.758,111.18722 v 19.82873 c -18.24772,0 -14.73479,0 -32.88492,0 v -19.82873 c 18.15013,0 14.53962,0 32.88492,0 z m -19.41869,2.83267 0,0 h 1.75646 11.0267 v 14.16338 h -11.0267 -1.75646 l 0,0 -8.29442,-7.13053 8.29442,-7.03285 0,0 z m 1.75646,1.75822 v 10.64695 h 9.27023 v -10.64695 h -9.27023 z m -1.75646,0.58607 -5.56214,4.78624 5.56214,4.78625 c 0,-0.0977 0,-9.57249 0,-9.57249 z m 17.46709,-3.22339 h -28.9817 c 0,4.9816 0,11.03767 0,15.92159 h 28.9817 c 0,-5.86071 0,-9.86553 0,-15.92159 z"
   style="fill:#d0d2d3" /><path
   id="path816"
   inkscape:connector-curvature="0"
   class="st3"
   d="m 1177.0383,111.18722 v 19.82873 c -18.2477,0 -14.7347,0 -32.8849,0 v -19.82873 c 18.1502,0 14.5396,0 32.8849,0 z m -19.4187,2.83267 0,0 h 1.7565 11.0267 v 14.16338 h -11.0267 -1.7565 l 0,0 -8.2944,-7.13053 8.2944,-7.03285 0,0 z m 1.7565,1.75822 v 10.64695 h 9.2702 v -10.64695 h -9.2702 z m -1.7565,0.58607 -5.5621,4.78624 5.5621,4.78625 c 0,-0.0977 0,-9.57249 0,-9.57249 z m 17.4671,-3.22339 h -28.9817 c 0,4.9816 0,11.03767 0,15.92159 h 28.9817 c 0,-5.86071 0,-9.86553 0,-15.92159 z"
   style="fill:#d0d2d3" /><path
   id="path818"
   inkscape:connector-curvature="0"
   class="st3"
   d="m 1351.3187,111.18722 v 19.82873 c -18.2477,0 -14.7348,0 -32.8849,0 v -19.82873 c 18.1501,0 14.5396,0 32.8849,0 z m -19.4187,2.83267 0,0 h 1.7565 11.0266 v 14.16338 h -11.0266 -1.7565 l 0,0 -8.2944,-7.13053 8.2944,-7.03285 0,0 z m 1.7565,1.75822 v 10.64695 h 9.2702 v -10.64695 h -9.2702 z m -1.7565,0.58607 -5.5622,4.78624 5.5622,4.78625 c 0,-0.0977 0,-9.57249 0,-9.57249 z m 17.4671,-3.22339 h -28.9817 c 0,4.9816 0,11.03767 0,15.92159 h 28.9817 c 0,-5.86071 0,-9.86553 0,-15.92159 z"
   style="fill:#d0d2d3" /><polygon
   id="polygon820"
   class="st1"
   points="1181.5,227.4 1181.5,217.3 1326.4,217.3 1326.4,227.4 "
   transform="matrix(0.97581377,0,0,0.9767847,24.114371,-96.086495)"
   style="fill:#1b75bb" /><polygon
   id="polygon822"
   class="st1"
   points="1002.9,227.4 1002.9,217.3 1147.8,217.3 1147.8,227.4 "
   transform="matrix(0.97581377,0,0,0.9767847,24.114371,-96.086495)"
   style="fill:#1b75bb" /><polygon
   id="polygon824"
   class="st1"
   points="824.3,227.4 824.3,217.3 969.2,217.3 969.2,227.4 "
   transform="matrix(0.97581377,0,0,0.9767847,24.114371,-96.086495)"
   style="fill:#1b75bb" /><polygon
   id="polygon826"
   class="st1"
   points="645.7,227.4 645.7,217.3 790.6,217.3 790.6,227.4 "
   transform="matrix(0.97581377,0,0,0.9767847,24.114371,-96.086495)"
   style="fill:#1b75bb" /><polygon
   id="polygon828"
   class="st1"
   points="467.1,227.4 467.1,217.3 612,217.3 612,227.4 "
   transform="matrix(0.97581377,0,0,0.9767847,24.114371,-96.086495)"
   style="fill:#1b75bb" /><polygon
   id="polygon830"
   class="st1"
   points="311.9,227.4 311.9,217.3 433.3,217.3 433.3,227.4 "
   transform="matrix(0.97581377,0,0,0.9767847,24.114371,-96.086495)"
   style="fill:#1b75bb" /><path
   id="path832"
   inkscape:connector-curvature="0"
   class="st3"
   d="m 479.91698,138.73255 v 19.82873 c -18.24771,0 -14.73478,0 -32.88492,0 v -19.82873 c 18.05255,0 14.53962,0 32.88492,0 z m -19.41869,2.83267 0,0 h 1.75646 11.0267 v 14.16338 h -11.0267 -1.75646 0 l -8.29442,-7.13053 8.29442,-7.03285 0,0 z m 1.75646,1.75822 v 10.64695 h 9.27023 v -10.64695 h -9.27023 z m -1.75646,0.58607 -5.56214,4.78624 5.56214,4.78625 c 0,-0.0977 0,-9.57249 0,-9.57249 z m 17.46707,-3.22339 h -28.98167 c 0,4.9816 0,11.03766 0,15.92159 h 28.98167 c 0,-5.95839 0,-9.96321 0,-15.92159 z"
   style="fill:#d0d2d3" /><path
   id="path834"
   inkscape:connector-curvature="0"
   class="st3"
   d="m 654.19732,138.73255 v 19.82873 c -18.24772,0 -14.73479,0 -32.88492,0 v -19.82873 c 18.05255,0 14.53962,0 32.88492,0 z m -19.41869,2.83267 0,0 h 1.75646 11.0267 v 14.16338 h -11.0267 -1.75646 l 0,0 -8.29442,-7.13053 8.29442,-7.03285 0,0 z m 1.75646,1.75822 v 10.64695 h 9.27023 v -10.64695 h -9.27023 z m -1.75646,0.58607 -5.56214,4.78624 5.56214,4.78625 c 0,-0.0977 0,-9.57249 0,-9.57249 z m 17.46706,-3.22339 h -28.98166 c 0,4.9816 0,11.03766 0,15.92159 h 28.98166 c 0,-5.95839 0,-9.96321 0,-15.92159 z"
   style="fill:#d0d2d3" /><path
   id="path836"
   inkscape:connector-curvature="0"
   class="st3"
   d="m 828.47766,138.73255 v 19.82873 c -18.24772,0 -14.73479,0 -32.88492,0 v -19.82873 c 18.05255,0 14.53962,0 32.88492,0 z m -19.41869,2.83267 0,0 h 1.75646 11.0267 v 14.16338 h -11.0267 -1.75646 l 0,0 -8.29442,-7.13053 8.29442,-7.03285 0,0 z m 1.75646,1.75822 v 10.64695 h 9.27023 v -10.64695 h -9.27023 z m -1.75646,0.58607 -5.56214,4.78624 5.56214,4.78625 c 0,-0.0977 0,-9.57249 0,-9.57249 z m 17.46706,-3.22339 h -28.98166 c 0,4.9816 0,11.03766 0,15.92159 h 28.98166 c 0,-5.95839 0,-9.96321 0,-15.92159 z"
   style="fill:#d0d2d3" /><path
   id="path838"
   inkscape:connector-curvature="0"
   class="st3"
   d="m 1002.758,138.73255 v 19.82873 c -18.24772,0 -14.73479,0 -32.88492,0 v -19.82873 c 18.15013,0 14.53962,0 32.88492,0 z m -19.41869,2.83267 0,0 h 1.75646 11.0267 v 14.16338 h -11.0267 -1.75646 l 0,0 -8.29442,-7.13053 8.29442,-7.03285 0,0 z m 1.75646,1.75822 v 10.64695 h 9.27023 v -10.64695 h -9.27023 z m -1.75646,0.58607 -5.56214,4.78624 5.56214,4.78625 c 0,-0.0977 0,-9.57249 0,-9.57249 z m 17.46709,-3.22339 h -28.9817 c 0,4.9816 0,11.03766 0,15.92159 h 28.9817 c 0,-5.95839 0,-9.96321 0,-15.92159 z"
   style="fill:#d0d2d3" /><path
   id="path840"
   inkscape:connector-curvature="0"
   class="st3"
   d="m 1177.0383,138.73255 v 19.82873 c -18.2477,0 -14.7347,0 -32.8849,0 v -19.82873 c 18.1502,0 14.5396,0 32.8849,0 z m -19.4187,2.83267 0,0 h 1.7565 11.0267 v 14.16338 h -11.0267 -1.7565 l 0,0 -8.2944,-7.13053 8.2944,-7.03285 0,0 z m 1.7565,1.75822 v 10.64695 h 9.2702 v -10.64695 h -9.2702 z m -1.7565,0.58607 -5.5621,4.78624 5.5621,4.78625 c 0,-0.0977 0,-9.57249 0,-9.57249 z m 17.4671,-3.22339 h -28.9817 c 0,4.9816 0,11.03766 0,15.92159 h 28.9817 c 0,-5.95839 0,-9.96321 0,-15.92159 z"
   style="fill:#d0d2d3" /><polygon
   id="polygon842"
   class="st1"
   points="1002.9,255.6 1002.9,245.5 1147.8,245.5 1147.8,255.6 "
   transform="matrix(0.97581377,0,0,0.9767847,24.114371,-96.086495)"
   style="fill:#1b75bb" /><polygon
   id="polygon844"
   class="st1"
   points="824.3,255.6 824.3,245.5 969.2,245.5 969.2,255.6 "
   transform="matrix(0.97581377,0,0,0.9767847,24.114371,-96.086495)"
   style="fill:#1b75bb" /><polygon
   id="polygon846"
   class="st1"
   points="645.7,255.6 645.7,245.5 790.6,245.5 790.6,255.6 "
   transform="matrix(0.97581377,0,0,0.9767847,24.114371,-96.086495)"
   style="fill:#1b75bb" /><polygon
   id="polygon848"
   class="st1"
   points="467.1,255.6 467.1,245.5 612,245.5 612,255.6 "
   transform="matrix(0.97581377,0,0,0.9767847,24.114371,-96.086495)"
   style="fill:#1b75bb" /><polygon
   id="polygon850"
   class="st1"
   points="315.7,255.6 315.7,245.5 433.3,245.5 433.3,255.6 "
   transform="matrix(0.97581377,0,0,0.9767847,24.114371,-96.086495)"
   style="fill:#1b75bb" /><path
   id="path852"
   inkscape:connector-curvature="0"
   class="st3"
   d="m 479.91698,166.27788 v 19.82873 c -18.24771,0 -14.73478,0 -32.88492,0 v -19.82873 c 18.05255,0 14.53962,0 32.88492,0 z m -19.41869,2.73499 0,0 h 1.75646 11.0267 v 14.26106 h -11.0267 -1.75646 0 l -8.29442,-7.13053 8.29442,-7.13053 0,0 z m 1.75646,1.85589 v 10.64696 h 9.27023 v -10.64696 h -9.27023 z m -1.75646,0.4884 -5.56214,4.78624 5.56214,4.78625 v -9.57249 l 0,0 z m 17.46707,-3.12571 h -28.98167 c 0,4.9816 0,11.03766 0,15.92159 h 28.98167 c 0,-5.95839 0,-9.96321 0,-15.92159 z"
   style="fill:#d0d2d3" /><polygon
   id="polygon854"
   class="st1"
   points="311.9,283.8 311.9,273.6 433.3,273.6 433.3,283.8 "
   transform="matrix(0.97581377,0,0,0.9767847,24.114371,-96.086495)"
   style="fill:#1b75bb" /><path
   id="_126014344-1"
   inkscape:connector-curvature="0"
   class="st5"
   d="m 310.02781,158.17056 h 17.2719 v -19.0473 h -17.2719 v 19.0473 z m 18.05255,1.26982 h -18.63804 -0.68307 v -0.58607 -20.4148 -0.68375 h 0.68307 18.63804 0.68307 v 0.68375 20.4148 0.68375 h -0.68307 z"
   style="fill:#404041" /><rect
   id="rect110_48-4"
   x="310.0278"
   y="139.12326"
   class="st22"
   width="17.271904"
   height="19.144981"
   style="fill:#6d6e70" /><text
   id="text170"
   inkscape:label="鍥涢」杞崲鍣"
   class="st24 st9 st23"
   x="313.9794"
   y="154.51019"
   style="font-size:16.95850945px;fill:#ee4036;enable-background:new;font-family:AdobeSongStd-Light-GBpc-EUC-H"
   transform="scale(0.99950287,1.0004974)">3</text>

<polygon
   id="polygon406-0"
   class="st22"
   points="581.3,520.5 560.4,520.5 560.4,538.3 581.3,538.3 "
   style="fill:#6d6e70"
   transform="matrix(0.97581377,0,0,0.9767847,24.114371,-53.107968)" /><text
   id="text199"
   inkscape:label="浜岄」杞崲鍣"
   transform="matrix(-4.368972e-8,1.0004974,-0.99950287,-4.3733191e-8,0,0)"
   class="st24 st9 st23"
   style="font-size:16.95850945px;fill:#ee4036;enable-background:new;font-family:AdobeSongStd-Light-GBpc-EUC-H"
   x="459.1402"
   y="-575.52051">2</text>

<polygon
   id="polygon406"
   class="st22"
   points="591.7,540.3 608.8,540.3 608.8,520 591.7,520 "
   style="fill:#6d6e70"
   transform="matrix(0.97581377,0,0,0.9767847,24.114371,-53.107968)" /><text
   id="text191"
   inkscape:label="浜岄」杞崲鍣"
   transform="matrix(-4.368972e-8,1.0004974,-0.99950287,-4.3733191e-8,0,0)"
   class="st19 st9 st23"
   style="font-size:16.95850945px;fill:#ffffff;enable-background:new;font-family:AdobeSongStd-Light-GBpc-EUC-H"
   x="459.95822"
   y="-603.86371">1</text>

<text
   class="st8 st9 st18"
   id="text258"
   x="1082.1886"
   y="903.73926"
   style="font-size:15.45706081px;fill:#ffffff;font-family:AdobeSongStd-Light-GBpc-EUC-H"
   transform="scale(0.99950287,1.0004974)">74.1%</text>

<text
   id="text209_29-1"
   inkscape:label="#1鏅鸿兘瀛樻牱鏌淿1鍙锋煖宸插瓨"
   class="st19 st9 st20"
   style="font-size:18.03351402px;fill:#ffffff;enable-background:new;font-family:AdobeSongStd-Light-GBpc-EUC-H"
   x="79.492287"
   y="616.7254"
   transform="scale(0.99950287,1.0004974)">0</text>

<text
   id="text571-7"
   class="st8 st9 st20"
   style="font-size:18.03351402px;fill:#ffffff;font-family:AdobeSongStd-Light-GBpc-EUC-H"
   x="120.20415"
   y="616.7254"
   transform="scale(0.99950287,1.0004974)">224</text>

<text
   id="text573-4"
   class="st8 st9 st20"
   style="font-size:18.03351402px;fill:#ffffff;font-family:AdobeSongStd-Light-GBpc-EUC-H"
   x="110.00925"
   y="616.7254"
   transform="scale(0.99950287,1.0004974)">/</text>

<text
   id="text209_29-0"
   inkscape:label="#1鏅鸿兘瀛樻牱鏌淿2鍙锋煖宸插瓨"
   class="st19 st9 st20"
   style="font-size:18.03351402px;fill:#ffffff;enable-background:new;font-family:AdobeSongStd-Light-GBpc-EUC-H"
   x="181.71284"
   y="616.7254"
   transform="scale(0.99950287,1.0004974)">0</text>

<text
   id="text571-9"
   class="st8 st9 st20"
   style="font-size:18.03351402px;fill:#ffffff;font-family:AdobeSongStd-Light-GBpc-EUC-H"
   x="222.42473"
   y="616.7254"
   transform="scale(0.99950287,1.0004974)">224</text>

<text
   id="text573-48"
   class="st8 st9 st20"
   style="font-size:18.03351402px;fill:#ffffff;font-family:AdobeSongStd-Light-GBpc-EUC-H"
   x="212.22983"
   y="616.7254"
   transform="scale(0.99950287,1.0004974)">/</text>

<text
   id="text209_29-8"
   inkscape:label="#1鏅鸿兘瀛樻牱鏌淿3鍙锋煖宸插瓨"
   class="st19 st9 st20"
   style="font-size:18.03351402px;fill:#ffffff;enable-background:new;font-family:AdobeSongStd-Light-GBpc-EUC-H"
   x="281.73062"
   y="616.7254"
   transform="scale(0.99950287,1.0004974)">0</text>

<text
   id="text571-2"
   class="st8 st9 st20"
   style="font-size:18.03351402px;fill:#ffffff;font-family:AdobeSongStd-Light-GBpc-EUC-H"
   x="322.44247"
   y="616.7254"
   transform="scale(0.99950287,1.0004974)">224</text>

<text
   id="text573-45"
   class="st8 st9 st20"
   style="font-size:18.03351402px;fill:#ffffff;font-family:AdobeSongStd-Light-GBpc-EUC-H"
   x="312.24756"
   y="616.7254"
   transform="scale(0.99950287,1.0004974)">/</text>

<text
   id="text209_29-5"
   inkscape:label="#1鏅鸿兘瀛樻牱鏌淿5鍙锋煖宸插瓨"
   class="st19 st9 st20"
   style="font-size:18.03351402px;fill:#ffffff;enable-background:new;font-family:AdobeSongStd-Light-GBpc-EUC-H"
   x="495.8652"
   y="615.40399"
   transform="scale(0.99950287,1.0004974)">0</text>

<text
   id="text571-1"
   class="st8 st9 st20"
   style="font-size:18.03351402px;fill:#ffffff;font-family:AdobeSongStd-Light-GBpc-EUC-H"
   x="536.57709"
   y="615.40399"
   transform="scale(0.99950287,1.0004974)">224</text>

<text
   id="text573-7"
   class="st8 st9 st20"
   style="font-size:18.03351402px;fill:#ffffff;font-family:AdobeSongStd-Light-GBpc-EUC-H"
   x="526.38165"
   y="615.40399"
   transform="scale(0.99950287,1.0004974)">/</text>

</svg>